<svg xmlns="http://www.w3.org/2000/svg" xml:space="preserve" viewBox="0 0 100 100" id="Linkedin">
  <path d="M95 59.727V93H75.71V61.955c0-7.799-2.79-13.121-9.771-13.121-5.331 0-8.503 3.587-9.898 7.057-.509 1.24-.64 2.967-.64 4.703V93H36.104s.26-52.58 0-58.028h19.294v8.225c-.039.062-.09.128-.127.188h.127v-.188c2.563-3.948 7.142-9.588 17.389-9.588C85.482 33.609 95 41.903 95 59.727M15.919 7C9.318 7 5 11.33 5 17.024c0 5.57 4.193 10.031 10.663 10.031h.129c6.729 0 10.914-4.46 10.914-10.031C26.579 11.33 22.521 7 15.919 7M6.146 93h19.289V34.972H6.146V93z" fill="#ffffff" class="color000000 svgShape"></path>
</svg>
