<svg xmlns="http://www.w3.org/2000/svg" fill="none" viewBox="0 0 24 24" id="magicstick">
  <path fill="#ffffff" fill-rule="evenodd" d="M15.9146 2.92782C15.3217 3.17189 14.5467 3.62858 13.4178 4.29716L12.8447 4.63653C12.8102 4.65698 12.776 4.67726 12.7422 4.69734C12.2154 5.01032 11.7704 5.27465 11.2649 5.33796C10.7542 5.40192 10.2652 5.25066 9.6966 5.0748C9.66009 5.06351 9.62326 5.05212 9.58607 5.04067L8.96802 4.85048C7.7488 4.4753 6.91831 4.22195 6.30151 4.1307C5.69883 4.04154 5.50449 4.13981 5.39353 4.24137C5.27846 4.34669 5.15965 4.54303 5.18383 5.16922C5.20841 5.80603 5.36962 6.67572 5.60821 7.94698L5.72928 8.59205C5.7364 8.62999 5.7435 8.66754 5.75053 8.70473C5.86331 9.30141 5.95834 9.80418 5.844 10.3059C5.73046 10.8041 5.42825 11.2224 5.06497 11.7251C5.04235 11.7564 5.01948 11.7881 4.99641 11.8201L4.60438 12.364C3.83249 13.435 3.30352 14.1721 3.00168 14.748C2.7003 15.3229 2.73296 15.5398 2.78306 15.6579C2.82806 15.764 2.93966 15.924 3.53516 16.0712C4.1387 16.2205 5.00882 16.3022 6.28697 16.4192L6.93485 16.4785C6.97485 16.4822 7.0145 16.4858 7.05381 16.4893C7.64642 16.5426 8.16092 16.5889 8.60434 16.8426C9.04872 17.0968 9.34758 17.5169 9.69049 17.9988C9.71324 18.0308 9.73618 18.063 9.75937 18.0955L10.1351 18.6219C10.8767 19.6606 11.3826 20.3655 11.8141 20.8082C12.2378 21.2428 12.4345 21.2621 12.5566 21.2468C12.6931 21.2297 12.9015 21.1439 13.2524 20.5992C13.6047 20.0522 13.9843 19.2298 14.5343 18.0319L14.8137 17.4235C14.83 17.3879 14.8461 17.3527 14.8621 17.3179C15.1202 16.7539 15.3345 16.2857 15.7122 15.94C16.0914 15.593 16.5752 15.4242 17.1539 15.2223C17.1896 15.2099 17.2257 15.1973 17.2622 15.1845L17.8865 14.9659C19.1162 14.5352 19.9583 14.2382 20.5285 13.9402C21.0914 13.646 21.2039 13.444 21.2379 13.2947C21.2697 13.1551 21.2622 12.9446 20.8837 12.473C20.4962 11.9901 19.8602 11.4046 18.9225 10.5456L18.4472 10.1103C18.4183 10.0838 18.3896 10.0576 18.3612 10.0316C17.9243 9.63271 17.5457 9.2869 17.345 8.81361C17.2382 8.5618 17.1942 8.31251 17.1753 8.05525C17.1449 7.64215 17.4551 7.28264 17.8682 7.25226C18.2813 7.22188 18.6408 7.53213 18.6712 7.94523C18.6827 8.10093 18.7037 8.17567 18.7259 8.22792C18.7829 8.36232 18.8892 8.48099 19.4604 9.00421L19.9838 9.48366C20.8613 10.2874 21.5851 10.9503 22.0536 11.5343C22.5399 12.1402 22.8839 12.8228 22.7004 13.628C22.5191 14.4235 21.9207 14.9051 21.2233 15.2696C20.5446 15.6243 19.5975 15.956 18.441 16.361L17.758 16.6002C17.0135 16.8609 16.8483 16.9336 16.7249 17.0465C16.5999 17.161 16.5099 17.3241 16.1769 18.0494L15.8718 18.7137C15.3538 19.842 14.9307 20.7636 14.5134 21.4115C14.0878 22.0723 13.5531 22.6337 12.743 22.7351C11.9187 22.8384 11.2791 22.4083 10.74 21.8553C10.2182 21.32 9.64617 20.5187 8.95249 19.5469L8.53855 18.9671C8.08585 18.3329 7.98151 18.2144 7.85944 18.1446C7.73636 18.0742 7.57839 18.0437 6.79813 17.9723L6.08514 17.907C4.88842 17.7975 3.90291 17.7074 3.17507 17.5274C2.42603 17.3422 1.72676 17.009 1.40213 16.2436C1.08259 15.4902 1.30926 14.7457 1.67313 14.0516C2.03065 13.3695 2.6244 12.5457 3.35139 11.5371L3.77952 10.9431C4.24727 10.294 4.34436 10.1356 4.38149 9.97264C4.41777 9.81347 4.3996 9.63911 4.25502 8.86874L4.12234 8.16182C3.89821 6.96778 3.71433 5.98815 3.68494 5.22709C3.65464 4.4423 3.77784 3.68672 4.38078 3.13487C4.98782 2.57927 5.74973 2.53274 6.52104 2.64685C7.26483 2.75689 8.20553 3.0464 9.34735 3.3978L10.0272 3.60702C10.7686 3.83515 10.9285 3.86837 11.0785 3.84959C11.2339 3.83012 11.394 3.75237 12.0804 3.34588L12.7076 2.97441C13.769 2.3458 14.6378 1.83126 15.3437 1.54072C16.0621 1.24503 16.8277 1.08878 17.544 1.49857C18.4088 1.99335 18.5996 2.96483 18.662 3.94351C18.6884 4.35688 18.3746 4.71335 17.9612 4.73969C17.5479 4.76603 17.1914 4.45228 17.1651 4.0389C17.1025 3.05657 16.9189 2.86907 16.7991 2.80054C16.7019 2.74496 16.5071 2.68397 15.9146 2.92782Z" clip-rule="evenodd" class="color111111 svgShape"></path>
  <path fill="#ffffff" fill-rule="evenodd" d="M16.4697 16.4699C16.7626 16.177 17.2374 16.177 17.5303 16.4699L21.5303 20.4699C21.8232 20.7628 21.8232 21.2377 21.5303 21.5306C21.2374 21.8235 20.7626 21.8235 20.4697 21.5306L16.4697 17.5306C16.1768 17.2377 16.1768 16.7628 16.4697 16.4699Z" clip-rule="evenodd" class="color111111 svgShape"></path>
</svg>
