<svg xmlns="http://www.w3.org/2000/svg" id="OpenBook" viewBox="0 0 1000 1000">
  <path d="M925,827.14H75a14,14,0,0,1-14-14v-537a14,14,0,0,1,14-14h85a14,14,0,0,1,0,28H89v509H911v-509H840a14,14,0,0,1,0-28h85a14,14,0,0,1,14,14v537A14,14,0,0,1,925,827.14Z" fill="#ffffff" class="color000000 svgShape"></path>
  <path d="M500,827.14a14,14,0,0,1-14-14v-537a14,14,0,0,1,6-11.47c57.87-40.51,116.7-67.93,174.85-81.5a384.88,384.88,0,0,1,176.36,0A14,14,0,0,1,854,196.77v537a14,14,0,0,1-17.3,13.6C728,721.05,617.45,747,508.1,824.56A14,14,0,0,1,500,827.14Zm14-543.69V786.73c50.73-32.87,102-55.49,152.82-67.34a377.13,377.13,0,0,1,159.18-3V208.05C722.71,187.21,617.83,212.54,514,283.45Z" fill="#ffffff" class="color000000 svgShape"></path>
  <path d="M568.49 348.53a14 14 0 0 1-8-25.47c70.77-49.54 142.85-66.21 214.25-49.55a14 14 0 0 1-6.36 27.27C705 286 640.48 301.21 576.51 346A14 14 0 0 1 568.49 348.53ZM568.49 428.7a14 14 0 0 1-8-25.47C631.22 353.69 703.3 337 774.7 353.69A14 14 0 0 1 768.34 381c-63.32-14.78-127.86.43-191.83 45.21A14 14 0 0 1 568.49 428.7ZM568.49 508.88a14 14 0 0 1-8-25.47c70.77-49.54 142.85-66.21 214.25-49.55a14 14 0 0 1-6.36 27.27c-63.32-14.78-127.86.43-191.83 45.21A14 14 0 0 1 568.49 508.88ZM568.49 589.05a14 14 0 0 1-8-25.47C631.22 514 703.3 497.38 774.7 514a14 14 0 0 1-6.36 27.27c-63.32-14.78-127.86.43-191.83 45.21A14 14 0 0 1 568.49 589.05ZM568.49 669.23a14 14 0 0 1-8-25.47c70.77-49.54 142.85-66.21 214.25-49.55a14 14 0 0 1-6.36 27.27c-63.32-14.78-127.86.44-191.83 45.21A14 14 0 0 1 568.49 669.23ZM500 827.14a14 14 0 0 1-8.1-2.58C382.55 747 272 721.05 163.3 747.41a14 14 0 0 1-17.3-13.6v-537a14 14 0 0 1 10.82-13.63 384.88 384.88 0 0 1 176.36 0c58.15 13.57 117 41 174.85 81.5a14 14 0 0 1 6 11.47v537a14 14 0 0 1-14 14ZM246.66 709.34a379.92 379.92 0 0 1 86.52 10C384 731.24 435.27 753.86 486 786.73V283.45c-103.83-70.91-208.7-96.24-312-75.4V716.42A378.19 378.19 0 0 1 246.66 709.34Z" fill="#ffffff" class="color000000 svgShape"></path>
  <path d="M431.51 348.53a13.93 13.93 0 0 1-8-2.54c-64-44.78-128.51-60-191.83-45.21a14 14 0 0 1-6.36-27.27c71.39-16.66 143.48 0 214.25 49.55a14 14 0 0 1-8 25.47ZM431.51 428.7a13.92 13.92 0 0 1-8-2.53c-64-44.78-128.51-60-191.83-45.21a14 14 0 0 1-6.36-27.27c71.39-16.66 143.48 0 214.25 49.54a14 14 0 0 1-8 25.47ZM431.51 508.88a13.93 13.93 0 0 1-8-2.54c-64-44.78-128.51-60-191.83-45.21a14 14 0 0 1-6.36-27.27c71.39-16.66 143.48 0 214.25 49.55a14 14 0 0 1-8 25.47ZM431.51 589.05a13.92 13.92 0 0 1-8-2.53c-64-44.78-128.51-60-191.83-45.21A14 14 0 0 1 225.3 514c71.39-16.66 143.48 0 214.25 49.54a14 14 0 0 1-8 25.47ZM431.51 669.23a13.93 13.93 0 0 1-8-2.54c-64-44.77-128.51-60-191.83-45.21a14 14 0 0 1-6.36-27.27c71.4-16.66 143.48 0 214.25 49.55a14 14 0 0 1-8 25.47Z" fill="#ffffff" class="color000000 svgShape"></path>
</svg>
