<svg xmlns="http://www.w3.org/2000/svg" viewBox="0 0 64 64" id="Robot">
  <path fill="#ffffff" d="M25.91,22H38.09A2.91,2.91,0,0,0,41,19.09V12.91A2.91,2.91,0,0,0,38.09,10H33V7.82a3,3,0,1,0-2,0V10H25.91A2.91,2.91,0,0,0,23,12.91v6.18A2.91,2.91,0,0,0,25.91,22ZM32,4a1,1,0,1,1-1,1A1,1,0,0,1,32,4Zm-7,8.91a.91.91,0,0,1,.91-.91H38.09a.91.91,0,0,1,.91.91v6.18a.91.91,0,0,1-.91.91H25.91a.91.91,0,0,1-.91-.91ZM27,16V15a1,1,0,0,1,1-1h1a1,1,0,0,1,1,1v1a1,1,0,0,1-1,1H28A1,1,0,0,1,27,16Zm7,0V15a1,1,0,0,1,1-1h1a1,1,0,0,1,1,1v1a1,1,0,0,1-1,1H35A1,1,0,0,1,34,16Zm7,24a4,4,0,0,1-4,4H27a4,4,0,0,1,0-8H37A4,4,0,0,1,41,40Zm-7-6H30V27h4ZM23,30.5A3.5,3.5,0,0,1,26.5,27H28v7H26.5A3.5,3.5,0,0,1,23,30.5Zm18,0A3.5,3.5,0,0,1,37.5,34H36V27h1.5A3.5,3.5,0,0,1,41,30.5ZM47.5,24H44a3.48,3.48,0,0,0-2.45-1h-19a3.48,3.48,0,0,0-2.45,1H16.5A2.5,2.5,0,0,0,14,26.5V45a1,1,0,0,0,1,1h2a1,1,0,0,0,0-2H16V26.5a.5.5,0,0,1,.5-.5h2.55a4,4,0,0,0-.05.5v18A3.5,3.5,0,0,0,22.5,48H23v7h-.35A2.65,2.65,0,0,0,20,57.65v1.7A2.65,2.65,0,0,0,22.65,62h7.7A2.64,2.64,0,0,0,32,61.41a2.64,2.64,0,0,0,1.65.59h7.7A2.65,2.65,0,0,0,44,59.35v-1.7A2.65,2.65,0,0,0,41.35,55H41V48h.5A3.5,3.5,0,0,0,45,44.5v-18a4,4,0,0,0,0-.5H47.5a.5.5,0,0,1,.5.5V44H47a1,1,0,0,0,0,2h2a1,1,0,0,0,1-1V26.5A2.5,2.5,0,0,0,47.5,24ZM25,48h3v7H25Zm9,7h-.35a2.64,2.64,0,0,0-1.65.59A2.64,2.64,0,0,0,30.35,55H30V48h4Zm-3.65,5h-7.7a.65.65,0,0,1-.65-.65v-1.7a.65.65,0,0,1,.65-.65h7.7a.65.65,0,0,1,.65.65v1.7A.65.65,0,0,1,30.35,60ZM42,57.65v1.7a.65.65,0,0,1-.65.65h-7.7a.65.65,0,0,1-.65-.65v-1.7a.65.65,0,0,1,.65-.65h7.7A.65.65,0,0,1,42,57.65ZM39,55H36V48h3Zm4-10.5A1.5,1.5,0,0,1,41.5,46h-19A1.5,1.5,0,0,1,21,44.5v-18A1.5,1.5,0,0,1,22.5,25h19A1.5,1.5,0,0,1,43,26.5Z" class="color22242b svgShape"></path>
</svg>
