<svg xmlns="http://www.w3.org/2000/svg" viewBox="0 0 48 48" id="Shield">
  <g fill="#ffffff" class="color000000 svgShape">
    <path d="M42.5547,6.168C42.2993,5.998,36.1631,2,24,2S5.7007,5.998,5.4453,6.168A1,1,0,0,0,5,7V34.6758a6.9885,6.9885,0,0,0,4.7861,6.64l13.8975,4.6328a.9922.9922,0,0,0,.6328,0l13.897-4.6328A6.9883,6.9883,0,0,0,43,34.6758V7A1,1,0,0,0,42.5547,6.168ZM41,34.6758a4.9936,4.9936,0,0,1-3.4185,4.7431h0L24,43.9463,10.4185,39.4189A4.9936,4.9936,0,0,1,7,34.6758V7.5723C8.5728,6.709,14.2827,4,24,4c9.7192,0,15.43,2.71,17,3.5723Z" fill="#ffffff" class="color000000 svgShape"></path>
    <path d="M9.6138,8.5371A1.0013,1.0013,0,0,0,9,9.46V34.6758a2.9965,2.9965,0,0,0,2.0518,2.8457l-.0005-.001,12.6323,4.2109a.9922.9922,0,0,0,.6328,0l12.6323-4.21A2.996,2.996,0,0,0,39,34.6758V9.4629a.9982.9982,0,0,0-.6138-.9219A37.5586,37.5586,0,0,0,24,6,37.618,37.618,0,0,0,9.6138,8.5371ZM21.2227,29.209a.1.1,0,0,1-.0767-.0459L17.2036,23.248a1.21,1.21,0,1,1,2.0142-1.3427l1.7,2.5488a1,1,0,0,0,1.539.1523l2.2457-2.2454.0082-.0082,4.2242-4.2239a1.2389,1.2389,0,0,1,1.7109,0,1.2124,1.2124,0,0,1,0,1.7119Zm-9.5391,6.414A.997.997,0,0,1,11,34.6758V10.1367A36.1,36.1,0,0,1,23,8.0243V21.2349L21.9048,22.33l-1.023-1.5342A3.21,3.21,0,1,0,15.54,24.3574l3.9423,5.9151a2.098,2.098,0,0,0,1.544.9267c.07.0069.14.0108.21.0108a2.0957,2.0957,0,0,0,1.4864-.6172L23,30.3149v9.0812L11.6841,35.624ZM37,34.6758a.9985.9985,0,0,1-.6836.9482L25,39.3962V28.3148l7.06-7.06a3.2136,3.2136,0,0,0,0-4.54,3.2868,3.2868,0,0,0-4.54,0L25,19.2349V8.0244A36.0621,36.0621,0,0,1,37,10.14Z" fill="#ffffff" class="color000000 svgShape"></path>
  </g>
</svg>
